<svg id="Layer_1" data-name="Layer 1" xmlns="http://www.w3.org/2000/svg" viewBox="0 0 41.12 66.12"><defs><style>.cls-1,.cls-2{fill:#fcfcfc;stroke:#231916;}.cls-1,.cls-2,.cls-3,.cls-4{stroke-linecap:round;stroke-width:3px;}.cls-1,.cls-3,.cls-4{stroke-linejoin:round;}.cls-2{stroke-miterlimit:10;}.cls-3,.cls-4{fill:none;}.cls-3{stroke:#ff4554;}.cls-4{stroke:#ea6764;}</style></defs><title>explore</title><polyline class="cls-1" points="22.31 30.07 39.52 35.03 39.62 53.23 34.99 60.33 35.01 64.51"/><line class="cls-2" x1="27.76" y1="32.86" x2="27.8" y2="39.95"/><line class="cls-2" x1="33.65" y1="34.6" x2="33.68" y2="41.64"/><path class="cls-1" d="M51.35,55.24L51.26,38.39a3.54,3.54,0,0,0-3.56-3.52h0a3.54,3.54,0,0,0-3.52,3.56l0.1,19.21a3.2,3.2,0,0,1-3.19,3.22H40.9l-2.6-3a3.89,3.89,0,0,0-5.49-.38L32.28,58a3.89,3.89,0,0,0-.38,5.49L44,77.44l0,4.18" transform="translate(-29.44 -16.99)"/><line class="cls-3" x1="36.39" y1="16.74" x2="29.01" y2="16.78"/><polyline class="cls-3" points="34.98 12.14 37.78 16.74 35.03 21.36"/><line class="cls-3" x1="4.38" y1="16.92" x2="11.76" y2="16.88"/><polyline class="cls-3" points="5.74 12.3 3 16.93 5.79 21.52"/><line class="cls-3" x1="19.9" y1="2.88" x2="19.94" y2="10.26"/><polyline class="cls-3" points="24.52 4.24 19.89 1.5 15.29 4.29"/><path class="cls-4" d="M49.86,39.28" transform="translate(-29.44 -16.99)"/></svg>