<svg id="Layer_1" data-name="Layer 1" xmlns="http://www.w3.org/2000/svg" viewBox="0 0 99.02 94.57"><defs><style>.cls-1,.cls-2,.cls-3{fill:none;stroke-linecap:round;stroke-width:3px;}.cls-1,.cls-2{stroke:#2b2a2a;}.cls-1{stroke-linejoin:round;}.cls-2,.cls-3{stroke-miterlimit:10;}.cls-3{stroke:#ff4554;}</style></defs><title>scale</title><polyline class="cls-1" points="62.32 38.03 90.19 38.71 97.52 66.06 93.35 78.58 95.03 84.86"/><line class="cls-2" x1="71.63" y1="40.09" x2="74.48" y2="50.73"/><line class="cls-2" x1="81.17" y1="40.38" x2="84.01" y2="50.96"/><path class="cls-1" d="M64.87,94.38L63.19,88.1l-12-8.19v0l-4.8,1.29A6.05,6.05,0,0,1,39,77L38.7,75.87A6.05,6.05,0,0,1,43,68.46l2.74-.73,1-.27,2.83-.76a8.19,8.19,0,0,0,5.79-10L55.16,56l-0.09-.35L48,29.32a5.51,5.51,0,0,1,3.89-6.75h0a5.51,5.51,0,0,1,6.75,3.89l6.76,25.24" transform="translate(-0.49 -1.3)"/><line class="cls-3" x1="25.4" y1="4.88" x2="21.12" y2="20.84"/><polyline class="cls-3" points="13.9 5.22 26.25 1.69 35.18 10.93"/><line class="cls-3" x1="11.29" y1="57.54" x2="15.56" y2="41.58"/><polyline class="cls-3" points="1.5 51.5 10.43 60.73 22.78 57.2"/></svg>