<svg id="Layer_1" data-name="Layer 1" xmlns="http://www.w3.org/2000/svg" viewBox="0 0 94.49 97"><defs><style>.cls-1,.cls-2,.cls-3{fill:none;stroke-linecap:round;stroke-width:3px;}.cls-1,.cls-2{stroke:#231916;}.cls-1{stroke-miterlimit:10;}.cls-2,.cls-3{stroke-linejoin:round;}.cls-3{stroke:#ff4554;}</style></defs><title>scan</title><path class="cls-1" d="M48.76,64.46h-4a5.06,5.06,0,0,1-5.06-5.06h0a5.06,5.06,0,0,1,5.06-5.06h4" transform="translate(-2.76 -1.5)"/><path class="cls-1" d="M47.74,54.35H46.8a5.06,5.06,0,0,1-5.06-5.06h0a5.06,5.06,0,0,1,5.06-5.06h0.95" transform="translate(-2.76 -1.5)"/><path class="cls-1" d="M48.76,74.49h-3a5.06,5.06,0,0,1-5.06-5.06h0a5.06,5.06,0,0,1,5.06-5.06h3" transform="translate(-2.76 -1.5)"/><polyline class="cls-2" points="84.29 95.5 84.29 89.53 92.98 79.42"/><line class="cls-1" x1="92.99" y1="79.42" x2="92.99" y2="58.01"/><path class="cls-1" d="M82.62,65.31H71.32a5.55,5.55,0,0,1-5.55-5.55v-1a5.55,5.55,0,0,1,5.55-5.55H88.56" transform="translate(-2.76 -1.5)"/><line class="cls-2" x1="86.31" y1="51.67" x2="92.99" y2="57.74"/><polyline class="cls-2" points="50.73 82.83 55.16 89.53 55.16 95.5"/><path class="cls-2" d="M74.32,83.9H52.8a4,4,0,0,1-4-4V25.25a4,4,0,0,1,4-4H83.14a4,4,0,0,1,4,4V52.16" transform="translate(-2.76 -1.5)"/><path class="cls-1" d="M82.62,65.31L77,70.61c-1.65,1.2-2.73,4.16-2.73,6.36V83.8" transform="translate(-2.76 -1.5)"/><polyline class="cls-3" points="1.5 7.97 1.5 1.5 7.97 1.5"/><polyline class="cls-3" points="33.86 7.97 33.86 1.5 27.39 1.5"/><polyline class="cls-3" points="1.5 27.39 1.5 33.86 7.97 33.86"/><polyline class="cls-3" points="33.86 27.39 33.86 33.86 27.39 33.86"/><line class="cls-3" x1="1.5" y1="17.68" x2="33.86" y2="17.68"/><line class="cls-2" x1="63.19" y1="29.41" x2="67.23" y2="29.41"/></svg>